# xmcd
#
# Track frame offsets: 
#        150
#        24772
#        44470
#        68020
#        85435
#        104930
#        122542
#        144055
#        161610
#        173450
#        192975
#        215687
#        237397
#        253565
#        275265
#        292530
#
# Disc length: 4089 seconds
#
# Revision: 0
# Processed by: cddbd v1.5.1PL0 Copyright (c) Steve Scherf et al.
# Submitted via: ExactAudioCopy v0.95a5
#
DISCID=d80ff710
DTITLE=1 - 2001日剧演奏精选
DYEAR=2001
DGENRE=
TTITLE0=Can you keep a secret?
TTITLE1=Lion heart
TTITLE2=Tsunami
TTITLE3=今夜在望月之山丘上
TTITLE4=Secret of my heart
TTITLE5=True love
TTITLE6=樱坡
TTITLE7=Angel
TTITLE8=Goodbye yellow brick road
TTITLE9=Seasons
TTITLE10=Sure
TTITLE11=Love again
TTITLE12=What will I do
TTITLE13=突如其来的爱情
TTITLE14=碧绿色的兔子
TTITLE15=Love love love
EXTD=
EXTT0=
EXTT1=
EXTT2=
EXTT3=
EXTT4=
EXTT5=
EXTT6=
EXTT7=
EXTT8=
EXTT9=
EXTT10=
EXTT11=
EXTT12=
EXTT13=
EXTT14=
EXTT15=
PLAYORDER=
